<?xml version="1.0" encoding="UTF-8"?>
<svg xmlns="http://www.w3.org/2000/svg" viewBox="0 0 1024 1024">
  <path fill="black" d="M735.47 946.46l80.22 0 -7.27 -401.75c-1.74,-95.94 23.21,-119.45 41.75,-142.21 16.71,-20.51 26.92,-50.49 26.92,-90.34 0,-84.09 -45.44,-180.32 -101.51,-180.32 -56.06,0 -101.51,96.23 -101.51,180.32 0,39.85 10.22,69.83 26.92,90.34 18.55,22.76 43.47,46.27 41.74,142.21l-7.26 401.75zm-214.46 -692.22l-111.75 233.26 115.97 0 -4.22 -233.26zm-176.28 367.94l-153.73 320.89c-22.47,13.56 -30.76,-16.86 -34.2,-33.06 -27.97,-131.67 3.4,-338.77 93.92,-424.66 22.81,-21.64 45.45,-18.22 52.72,-33.39l164.31 -342.95c13.22,-27.59 46.3,-39.24 73.89,-26.02 19.5,9.34 31.04,28.61 31.46,48.86l25.92 0 -6.49 358.74c16.68,6.56 28.57,22.86 28.57,41.81l0 0c0,25.78 -11.01,49.11 -28.57,65.52 9.12,25.49 50.48,32.72 46.18,95.66l-16.83 246.03c0,3.78 -3.07,6.85 -6.85,6.85 -3.78,0 -6.96,-3.07 -6.85,-6.85l6.37 -213.69c0.12,-5.57 -4.29,-10.19 -9.86,-10.31 -5.57,-0.13 -10.19,4.28 -10.32,9.85l-9.91 214.15c0,3.78 -3.07,6.85 -6.85,6.85 -3.79,0 -6.86,-3.07 -6.86,-6.85l-1.76 -213.87c0,-5.57 -4.52,-10.09 -10.09,-10.09 -5.57,0 -10.09,4.52 -10.09,10.09l-1.77 213.87c0,3.78 -3.07,6.85 -6.86,6.85 -3.78,0 -6.85,-3.07 -6.85,-6.85l-9.9 -213.87c0,-5.57 -4.51,-10.09 -10.09,-10.09 -5.57,0 -10.25,4.52 -10.09,10.09l6.36 213.87c0,3.78 -3.07,6.85 -6.85,6.85 -3.78,0 -6.85,-3.07 -6.85,-6.85l-16.82 -246.03c-2.73,-39.92 12.92,-57.43 27.05,-71.4l-161.41 0z"></path>
</svg>
